<svg width="21" height="19" viewBox="0 0 21 19" fill="none" xmlns="http://www.w3.org/2000/svg">
<path d="M16.75 7.37499C16.75 6.22604 15.8157 5.29166 14.6667 5.29166H13.173L10.6542 1.09479C10.4686 0.786998 10.2068 0.532235 9.89406 0.355069C9.58133 0.177904 9.22822 0.0843143 8.86879 0.0833282H3.20837V2.16666H8.86879L10.7438 5.29166H2.16671C1.01775 5.29166 0.083374 6.22604 0.083374 7.37499V16.75C0.083374 17.899 1.01775 18.8333 2.16671 18.8333H14.6667C15.8157 18.8333 16.75 17.899 16.75 16.75V13.625L20.9167 15.7083V8.41666L16.75 10.5V7.37499ZM14.6688 16.75H2.16671V7.37499H14.6667L14.6677 11.5417H14.6667V12.5833L14.6677 12.5844L14.6688 16.75Z" fill="#CB8461"/>
</svg>
